<svg fill="#FFFFFF" xmlns="http://www.w3.org/2000/svg" viewBox="0 0 48 48" width="48px" height="48px">
<path d="M 24 4 C 12.972066 4 4 12.972074 4 24 C 4 35.027926 12.972066 44 24 44 C 35.027934 44 44 35.027926 44 24 C 44 12.972074 35.027934 4 24 4 z M 24 7 C 33.406615 7 41 14.593391 41 24 C 41 33.406609 33.406615 41 24 41 C 14.593385 41 7 33.406609 7 24 C 7 14.593391 14.593385 7 24 7 z M 14 15 C 13.448 15 13 15.448 13 16 L 13 32 C 13 32.552 13.448 33 14 33 L 34 33 C 34.552 33 35 32.552 35 32 L 35 16 C 35 15.448 34.552 15 34 15 L 14 15 z M 15.599609 17 L 32.400391 17 L 24 23.345703 L 15.599609 17 z M 15 18.789062 L 23.287109 25.042969 C 23.502109 25.205969 23.751 25.287109 24 25.287109 C 24.249 25.287109 24.497891 25.205969 24.712891 25.042969 L 33 18.789062 L 33 31 L 15 31 L 15 18.789062 z"/>
</svg>
