<svg fill="#FFFFFF" xmlns="http://www.w3.org/2000/svg" viewBox="0 0 48 48" width="48px" height="48px"><path d="M 24 4 C 12.972066 4 4 12.972074 4 24 C 4 35.027926 12.972066 44 24 44 C 35.027934 44 44 35.027926 44 24 C 44 12.972074 35.027934 4 24 4 z M 24 7 C 33.406615 7 41 14.593391 41 24 C 41 33.406609 33.406615 41 24 41 C 14.593385 41 7 33.406609 7 24 C 7 14.593391 14.593385 7 24 7 z M 17 14 C 15.343 14 14 15.343 14 17 C 14 18.657 15.343 20 17 20 C 18.657 20 20 18.657 20 17 C 20 15.343 18.657 14 17 14 z M 27 21 C 24.879 21 23.552406 22.008906 23.066406 22.878906 L 23 22.878906 L 23 21.5 L 19 21.5 L 19 33.5 L 23 33.5 L 23 27.125 C 23 25.425 23.631 24 25.5 24 C 27.294 24 27.5 25.671 27.5 27.25 L 27.5 33.5 L 31.5 33.5 L 31.5 26.375 C 31.5 22.893 30.869 21 27 21 z M 14.5 21.5 L 14.5 33.5 L 18.5 33.5 L 18.5 21.5 L 14.5 21.5 z"/></svg>