<svg fill="#FFFFFF" xmlns="http://www.w3.org/2000/svg" viewBox="0 0 48 48" width="48px" height="48px">
<path d="M 24 4 C 12.972066 4 4 12.972074 4 24 C 4 35.027926 12.972066 44 24 44 C 35.027934 44 44 35.027926 44 24 C 44 12.972074 35.027934 4 24 4 z M 24 7 C 33.406615 7 41 14.593391 41 24 C 41 33.406609 33.406615 41 24 41 C 21.108615 41 18.370968 40.335484 15.931641 39.154297 L 9.4023438 40.875 C 8.6883438 41.074 8.0136562 40.398313 8.2226562 39.695312 L 9.9394531 33.089844 C 8.6932031 30.600844 8 27.894609 8 24 C 8 14.593391 15.593385 7 24 7 z M 24 10 C 17.382712 10 12 15.382716 12 22 C 12 24.946604 13.033896 27.630269 14.753906 29.738281 L 15.140625 30.203125 L 13.9375 34.835938 L 18.619141 33.626953 L 19.080078 34.015625 C 21.202328 35.692625 23.942203 36.689453 26.908203 36.689453 C 33.525491 36.689453 38.908203 31.306737 38.908203 24.689453 C 38.908203 21.472453 37.727172 18.501172 35.576172 16.326172 C 33.425172 14.151172 30.459797 12.970703 27.216797 12.970703 C 27.176797 12.970703 24.04 12.96 24 13 z M 26.955078 15.970703 C 29.711328 15.970703 32.166984 17.078469 34.021484 18.917969 C 35.875984 20.757469 36.970703 23.207875 36.970703 25.921875 C 36.970703 30.188163 33.506491 33.652344 29.240234 33.652344 C 26.863234 33.652344 24.699766 32.726734 23.134766 31.177734 L 22.751953 30.794922 L 19.472656 31.615234 L 20.302734 28.373047 L 19.923828 27.996094 C 18.420828 26.446094 17.501953 24.290719 17.501953 21.886719 C 17.501953 17.620431 20.966166 14.138672 25.232422 14.138672 C 25.806422 14.138672 26.396078 14.198703 26.955078 14.318703 L 26.955078 15.970703 z M 19.642578 19.341797 C 19.509578 19.569797 18.795109 20.534766 18.662109 20.972656 C 18.529109 21.410656 18.529109 21.848547 18.795109 22.435547 C 19.061109 23.022547 20.042578 24.825781 21.392578 26.300781 C 23.009578 28.067781 24.493172 28.925391 25.326172 29.400391 C 25.859172 29.666391 26.297062 29.800391 26.664062 29.800391 C 27.097062 29.800391 27.530328 29.533422 27.861328 29.232422 C 28.126328 28.998422 28.919281 28.074953 29.238281 27.626953 C 29.503281 27.245953 29.503281 26.931781 29.371094 26.675781 C 29.238094 26.419781 28.134766 25.849609 27.384766 25.474609 C 26.634766 25.099609 26.252953 24.857422 25.876953 24.857422 C 25.567953 24.857422 25.326172 24.990234 25.076172 25.240234 C 24.810172 25.506234 24.177734 26.248047 23.927734 26.498047 C 23.661734 26.764047 23.395734 26.764047 23.052734 26.630859 C 22.709734 26.497859 21.509328 26.052391 20.111328 24.775391 C 18.978328 23.732391 18.263859 22.481453 18.130859 22.189453 C 17.997859 21.897453 18.130859 21.631453 18.255859 21.439453 C 18.380859 21.247453 18.529297 20.988281 18.654297 20.863281 C 18.779297 20.738281 18.904297 20.613281 19.029297 20.488281 C 19.154297 20.363281 19.208578 20.222797 19.267578 20.091797 C 19.400578 19.835797 19.400578 19.580797 19.267578 19.466797 C 19.200578 19.399797 18.798578 18.556797 18.517578 17.966797 C 18.359578 17.619797 18.195578 17.541797 17.892578 17.466797 C 17.696578 17.416797 17.500578 17.416797 17.267578 17.416797 C 16.901578 17.416797 16.402344 17.550781 15.902344 18.050781 C 15.402344 18.550781 14.169922 19.783203 14.169922 22.283203 C 14.169922 24.783203 16.036328 27.150391 16.361328 27.525391 C 16.686328 27.900391 20.001953 33 25.001953 35 C 26.251953 35.5 27.168516 35.733203 27.978516 35.908203 C 29.228516 36.241203 30.361672 36.174609 31.263672 36.099609 C 32.263672 35.999609 34.263672 34.941406 34.763672 33.691406 C 35.263672 32.441406 35.263672 31.441406 35.138672 31.191406 C 35.013672 30.941406 34.638672 30.816406 34.138672 30.566406 C 33.638672 30.316406 31.138672 29.083984 30.638672 28.833984 C 30.138672 28.583984 29.763672 28.583984 29.388672 29.083984 C 29.013672 29.583984 28.138672 30.816406 27.888672 31.191406 C 27.638672 31.566406 27.263672 31.566406 26.763672 31.316406 C 26.263672 31.066406 24.638672 30.533203 22.638672 28.783203 C 21.013672 27.408203 19.888672 25.658203 19.638672 25.158203 C 19.388672 24.658203 19.638672 24.408203 19.763672 24.158203 C 19.888672 23.908203 20.138672 23.533203 20.388672 23.283203 C 20.638672 23.033203 20.638672 22.783203 20.763672 22.408203 C 20.888672 22.033203 20.763672 21.658203 20.638672 21.408203 C 20.513672 21.158203 19.775578 19.113797 19.642578 19.341797 z"/>
</svg>
